<svg xmlns="http://www.w3.org/2000/svg" enable-background="new 0 0 92 92" viewBox="0 0 92 92"><circle cx="46" cy="46" r="45" fill="#EFEEF3"/><path fill="#D4D6E8" d="M75.9,16.6H58.5H38.3H20.9c-2,0-3.6,1.6-3.6,3.6v45.2c-1.2,1.6-1.9,3.5-1.9,5.7c0,5.3,4.3,9.5,9.5,9.5   c2.1,0,4.1-0.7,5.7-1.9h7.6h20.2h17.4c2,0,3.6-1.6,3.6-3.6v-55C79.5,18.2,77.9,16.6,75.9,16.6z"/><path fill="#FFF" d="M74.2 76.5H57V15.8h17.2c1.7 0 3 1.3 3 3v54.6C77.2 75.1 75.9 76.5 74.2 76.5zM36.8 76.5H19.6c-1.7 0-3-1.3-3-3V18.8c0-1.7 1.3-3 3-3h17.2V76.5z"/><rect width="20.2" height="60.6" x="36.8" y="15.8" fill="#FFF"/><rect width="12.3" height="11.7" x="20.6" y="45.4" fill="#34CBA0"/><rect width="12.3" height="11.7" x="20.6" y="29.9" fill="#2AABF5"/><rect width="12.3" height="11.7" x="40.8" y="60.9" fill="#34CBA0"/><rect width="12.3" height="11.7" x="40.8" y="45.4" fill="#F3877E"/><rect width="12.3" height="11.7" x="40.8" y="29.9" fill="#FFC408"/><rect width="12.3" height="11.7" x="61" y="60.9" fill="#FFC408"/><rect width="12.3" height="11.7" x="61" y="45.4" fill="#2AABF5"/><rect width="12.3" height="11.7" x="61" y="29.9" fill="#D4D6E8"/><rect width="20.2" height="10.2" x="36.8" y="15.8" fill="#34CBA0"/><path fill="#F3877E" d="M36.8,15.8v10.2H16.6v-7.4c0-1.6,1.3-2.8,2.8-2.8H36.8z"/><path fill="#2AABF5" d="M77.2,18.7v7.4H57V15.8h17.4C76,15.8,77.2,17.1,77.2,18.7z"/><line x1="36.8" x2="29.2" y1="76.5" y2="76.5" fill="none" stroke="#151F81" stroke-linecap="round" stroke-linejoin="round" stroke-miterlimit="10" stroke-width="1.5"/><rect width="12.3" height="11.7" x="20.6" y="45.4" fill="none" stroke="#151F81" stroke-linecap="round" stroke-linejoin="round" stroke-miterlimit="10" stroke-width="1.5"/><rect width="12.3" height="11.7" x="20.6" y="29.9" fill="none" stroke="#151F81" stroke-linecap="round" stroke-linejoin="round" stroke-miterlimit="10" stroke-width="1.5"/><line x1="16.6" x2="36.8" y1="26.1" y2="26.1" fill="none" stroke="#151F81" stroke-linecap="round" stroke-linejoin="round" stroke-miterlimit="10" stroke-width="1.5"/><rect width="20.2" height="60.6" x="36.8" y="15.8" fill="none" stroke="#151F81" stroke-linecap="round" stroke-linejoin="round" stroke-miterlimit="10" stroke-width="1.5"/><line x1="36.8" x2="57" y1="26.1" y2="26.1" fill="none" stroke="#151F81" stroke-linecap="round" stroke-linejoin="round" stroke-miterlimit="10" stroke-width="1.5"/><path fill="none" stroke="#151F81" stroke-linecap="round" stroke-linejoin="round" stroke-miterlimit="10" stroke-width="1.5" d="M16.6 74.8V18.7c0-1.6 1.3-2.8 2.8-2.8h17.4M57 15.8h17.4c1.6 0 2.8 1.3 2.8 2.8v55c0 1.6-1.3 2.8-2.8 2.8H57"/><rect width="12.3" height="11.7" x="40.8" y="60.9" fill="none" stroke="#151F81" stroke-linecap="round" stroke-linejoin="round" stroke-miterlimit="10" stroke-width="1.5"/><rect width="12.3" height="11.7" x="40.8" y="45.4" fill="none" stroke="#151F81" stroke-linecap="round" stroke-linejoin="round" stroke-miterlimit="10" stroke-width="1.5"/><rect width="12.3" height="11.7" x="40.8" y="29.9" fill="none" stroke="#151F81" stroke-linecap="round" stroke-linejoin="round" stroke-miterlimit="10" stroke-width="1.5"/><rect width="12.3" height="11.7" x="61" y="60.9" fill="none" stroke="#151F81" stroke-linecap="round" stroke-linejoin="round" stroke-miterlimit="10" stroke-width="1.5"/><rect width="12.3" height="11.7" x="61" y="45.4" fill="none" stroke="#151F81" stroke-linecap="round" stroke-linejoin="round" stroke-miterlimit="10" stroke-width="1.5"/><rect width="12.3" height="11.7" x="61" y="29.9" fill="none" stroke="#151F81" stroke-linecap="round" stroke-linejoin="round" stroke-miterlimit="10" stroke-width="1.5"/><line x1="57" x2="77.2" y1="26.1" y2="26.1" fill="none" stroke="#151F81" stroke-linecap="round" stroke-linejoin="round" stroke-miterlimit="10" stroke-width="1.5"/><line x1="20.6" x2="32.9" y1="21" y2="21" fill="none" stroke="#151F81" stroke-linecap="round" stroke-linejoin="round" stroke-miterlimit="10" stroke-width="1.5"/><line x1="40.8" x2="53.1" y1="21" y2="21" fill="none" stroke="#151F81" stroke-linecap="round" stroke-linejoin="round" stroke-miterlimit="10" stroke-width="1.5"/><line x1="60.9" x2="73.2" y1="21" y2="21" fill="none" stroke="#151F81" stroke-linecap="round" stroke-linejoin="round" stroke-miterlimit="10" stroke-width="1.5"/><g><circle cx="23.5" cy="69.6" r="8.8" fill="#FFC408"/><circle cx="23.5" cy="69.6" r="8.8" fill="none" stroke="#151F81" stroke-linecap="round" stroke-linejoin="round" stroke-miterlimit="10" stroke-width="1.5"/><polyline fill="none" stroke="#151F81" stroke-linecap="round" stroke-linejoin="round" stroke-miterlimit="10" stroke-width="1.5" points="19.8 70.3 21.8 72.3 27.3 66.8"/></g></svg>