<svg xmlns="http://www.w3.org/2000/svg" enable-background="new 0 0 55 55" viewBox="0 0 55 55"><path fill="#fc4a32" d="M50.6529427,29.2742119C49.7818794,40.8729172,40.3771248,50.095005,28.6929188,50.6942558    C15.1883459,51.368145,4.2629266,40.6019249,4.2629266,27.4942436c0-12.8300171,10.4000244-23.2300415,23.2300415-23.2300415    C41.389904,4.2642021,51.7833252,16.2885723,50.6529427,29.2742119z"/><path fill="#e23e2d" d="M34.9379921,15.0243988v1.394125c0,10.8477821-8.7938652,19.6416454-19.6416454,19.6416454H13.093482    c-3.4753809,0-5.3776364,4.1026802-3.0900183,6.7189903c13.8909492,15.8868294,39.7629662,6.3681755,40.6924477-14.2108612    c0.3062859-6.7812252-2.2971687-12.9550581-6.666687-17.3832092    C40.7031326,7.8143663,34.9379921,10.2889299,34.9379921,15.0243988z"/><path fill="#d3322a" d="M44.5413895,43.2604218c-0.4299927,0.4799805-0.8900146,0.9299927-1.3699951,1.3699951     L26.5113583,27.9703827c-0.1499634-0.1499634-0.2399902-0.3399658-0.2600098-0.5299683L26.23139,27.2604218     c0-0.0499878,0-0.1099854,0.0199585-0.1600342c0.0300293-0.1799927,0.1200562-0.3599854,0.2600098-0.5     c0.1900024-0.1799927,0.4400024-0.2799683,0.6799927-0.2799683c0.25,0,0.5,0.0999756,0.6900024,0.2799683L44.5413895,43.2604218z     "/><path fill="#e7e7e7" d="M45.7429695,27.4942436c0,10.0799561-8.1700439,18.25-18.2500019,18.25    c-10.0800171,0-18.2600098-8.1700439-18.2600098-18.25c0-10.0800171,8.1799917-18.25,18.2600098-18.25    C37.5729256,9.2442436,45.7429695,17.4142265,45.7429695,27.4942436z"/><path fill="#fc4a32" d="M40.4129524,27.4942436c0,7.1399536-5.7800293,12.9299927-12.9199848,12.9299927    c-7.1400146,0-12.9299917-5.7900391-12.9299917-12.9299927c0-7.1400146,5.7899771-12.9299927,12.9299917-12.9299927    C34.6329231,14.5642509,40.4129524,20.354229,40.4129524,27.4942436z"/><path fill="#e7e7e7" d="M35.0929451,27.4942436c0,1.7799683-0.6099854,3.4099731-1.6199951,4.7000122    c-0.4099731,0.5199585-0.8699951,0.9699707-1.3900146,1.3499756c-1.2799702,0.9899902-2.869997,1.5599976-4.5899677,1.5599976    c-4.2000122,0-7.6100464-3.4099731-7.6100464-7.6099854s3.4100342-7.6000366,7.6100464-7.6000366    C31.6929188,19.894207,35.0929451,23.2942314,35.0929451,27.4942436z"/><path fill="#d5d3d4" d="M45.7414017,27.4904022c0,4.7200317-1.7800293,9.0100098-4.7200317,12.25    c-0.4299927,0.4799805-0.8900146,0.9299927-1.3699951,1.3699951C36.4213943,44.000412,32.1613846,45.750412,27.48139,45.750412    c-6.8599854,0-12.8300171-3.789978-15.9500122-9.3800049c0.4699707-0.210022,1-0.3099976,1.5599976-0.3099976h2.210022    c0.7999878,0,1.5999756-0.0499878,2.3800049-0.1500244c2.1699829-0.2599487,4.2199707-0.8699951,6.1099854-1.7799683    c1.9400024-0.9299927,3.7000122-2.1699829,5.2199707-3.6600342c0.4700317-0.4499512,0.9100342-0.9199829,1.3200073-1.4199829    c1.460022-1.7299805,2.6300068-3.7199707,3.4199848-5.8800049c0.710022-1.9500122,1.1300049-4.0499878,1.1800537-6.25    c0.0099487-0.1599731,0.0099487-0.3399658,0.0099487-0.5v-1.3999634c0-1.4100342,0.5100098-2.6199951,1.3200073-3.5400391    C41.9113846,14.5903778,45.7414017,20.5903778,45.7414017,27.4904022z"/><path fill="#c4c4c4" d="M41.0213699,39.7404022c-0.4299927,0.4799805-0.8900146,0.9299927-1.3699951,1.3699951     L26.5113583,27.9703827c-0.1499634-0.1499634-0.2399902-0.3399658-0.2600098-0.5299683L26.23139,27.2604218     c0-0.0499878,0-0.1099854,0.0199585-0.1600342c0.0300293-0.1799927,0.1200562-0.3599854,0.2600098-0.5     c0.1900024-0.1799927,0.4400024-0.2799683,0.6799927-0.2799683c0.25,0,0.5,0.0999756,0.6900024,0.2799683L41.0213699,39.7404022z     "/><path fill="#e23e2d" d="M40.4213943,27.4904022c0,3.2399902-1.2000122,6.2000122-3.1799927,8.4700317    c-0.4100342,0.4899902-0.8699951,0.9499512-1.3699951,1.3699951c-2.2600098,1.9299927-5.1900043,3.0899658-8.3900166,3.0899658    c-3.9200439,0-7.4299927-1.75-9.7999878-4.5100098c2.1699829-0.2599487,4.2199707-0.8699951,6.1099854-1.7799683    c1.9400024-0.9299927,3.7000122-2.1699829,5.2199707-3.6600342c0.4700317-0.4499512,0.9100342-0.9199829,1.3200073-1.4199829    c1.460022-1.7299805,2.6300068-3.7199707,3.4199848-5.8800049c0.710022-1.9500122,1.1300049-4.0499878,1.1800537-6.25    C38.2513504,19.250412,40.4213943,23.1103973,40.4213943,27.4904022z"/><path fill="#d3322a" d="M37.2414017,35.960434c-0.4100342,0.4899902-0.8699951,0.9499512-1.3699951,1.3699951l-9.3600483-9.3600464     c-0.359993-0.359993-0.3804245-0.9894047,0-1.3699951c0.4017754-0.3806076,0.9853973-0.364336,1.3699951,0L37.2414017,35.960434z     "/><path fill="#d5d3d4" d="M35.0913773,27.4904022c0,1.7700195-0.5999756,3.4000244-1.6300049,4.6900024    c-0.2237053,0.3731422-1.003849,1.0906448-1.3599854,1.3400269c-0.0100098,0.0099487-0.0100098,0.0199585-0.0200195,0.0199585    c-1.2799702,0.9800415-2.869997,1.5599976-4.5999775,1.5599976c-1.3400269,0-2.6000366-0.3499756-3.6900024-0.9699707    c1.9400024-0.9299927,3.7000122-2.1699829,5.2199707-3.6600342c0.4700317-0.4499512,0.9100342-0.9199829,1.3200073-1.4199829    c1.460022-1.7299805,2.6300068-3.7199707,3.4199848-5.8800049C34.601387,24.4004364,35.0913773,25.8804169,35.0913773,27.4904022z    "/><path fill="#d5d3d4" d="M33.4713821,32.1904144c-0.4100342,0.5200195-0.8699951,0.9699707-1.3900146,1.3499756l-5.5700092-5.5700073     c-0.1499634-0.1499634-0.2399902-0.3399658-0.2600098-0.5299683L26.23139,27.2604218     c0-0.0499878,0-0.1099854,0.0199585-0.1600342c0.0300293-0.1799927,0.1200562-0.3599854,0.2600098-0.5     c0.1900024-0.1799927,0.4400024-0.2799683,0.6799927-0.2799683c0.25,0,0.5,0.0999756,0.6900024,0.2799683L33.4713821,32.1904144z     "/><path fill="#c4c4c4" d="M33.4713821,32.1904144c-0.4699402,0.5876045-0.9968567,1.0687294-1.3699951,1.3300171     c-0.0100098,0.0099487-0.0100098,0.0199585-0.0200195,0.0199585l-3.0700092-3.0700073     c0.4700317-0.4499512,0.9100342-0.9199829,1.3200073-1.4199829L33.4713821,32.1904144z"/><path fill="#f4bc5f" d="M49.8021202,9.6879301l-4.8793411,4.8793392c-0.283123,0.2831249-0.6687622,0.4260254-1.0269394,0.3805399     l-3.896843-0.4948673l6.450943-6.450942c0.283123-0.2831249,0.6687584-0.4260254,1.0269356-0.3805399l1.9086342,0.2423806     C50.2369766,7.9719696,50.4751701,9.0148792,49.8021202,9.6879301z"/><path fill="#f9d78d" d="M44.7640076,4.6498179l-4.8793373,4.8793397c-0.2831268,0.2831249-0.4260254,0.6687622-0.3805428,1.0269394     l0.4948692,3.8968449l6.450943-6.450942c0.283123-0.2831249,0.4260254-0.6687617,0.3805389-1.0269389l-0.242382-1.9086318     C46.479969,4.2149625,45.4370575,3.976768,44.7640076,4.6498179z"/><path fill="#f7cc6d" d="M48.1285934,7.6928167L27.8826332,27.9387741c-0.3781681,0.3781681-0.9913006,0.3781681-1.3694687,0     h-0.0000019c-0.3781681-0.37817-0.3781681-0.9913006,0-1.3694687L46.7591209,6.3233466     c0.37817-0.3781686,0.9913025-0.3781686,1.3694687,0l0.0000038,0.0000014     C48.5067596,6.7015162,48.5067596,7.3146482,48.1285934,7.6928167z"/><path fill="#f4bc5f" d="M49.8021202,9.6879301l-4.8793411,4.8793392c-0.283123,0.2831249-0.6687622,0.4260254-1.0269394,0.3805399     l-3.896843-0.4948673l6.450943-6.450942c0.283123-0.2831249,0.6687584-0.4260254,1.0269356-0.3805399l1.9086342,0.2423806     C50.2369766,7.9719696,50.4751701,9.0148792,49.8021202,9.6879301z"/><path fill="#f9d78d" d="M44.7640076,4.6498179l-4.8793373,4.8793397c-0.2831268,0.2831249-0.4260254,0.6687622-0.3805428,1.0269394     l0.4948692,3.8968449l6.450943-6.450942c0.283123-0.2831249,0.4260254-0.6687617,0.3805389-1.0269389l-0.242382-1.9086318     C46.479969,4.2149625,45.4370575,3.976768,44.7640076,4.6498179z"/><path fill="#f7cc6d" d="M48.1285934,7.6928167L27.8826332,27.9387741c-0.3781681,0.3781681-0.9913006,0.3781681-1.3694687,0     h-0.0000019c-0.3781681-0.37817-0.3781681-0.9913006,0-1.3694687L46.7591209,6.3233466     c0.37817-0.3781686,0.9913025-0.3781686,1.3694687,0l0.0000038,0.0000014     C48.5067596,6.7015162,48.5067596,7.3146482,48.1285934,7.6928167z"/><path fill="#ff6252" d="M11.0554075 14.7143974c-.5566406-.4916992-.609375-1.3417969-.1181641-1.8989258 2.7802734-3.1503906 6.3691397-5.4379883 10.3779287-6.6152344.7070313-.2094727 1.4609375.1982422 1.6699219.9121094.2089844.7128906-.1992188 1.4604492-.9121094 1.6699219-3.5214844 1.0336914-6.6748037 3.0439453-9.1181631 5.8134766C12.4624329 15.1542082 11.6124792 15.2055559 11.0554075 14.7143974zM45.5065804 37.8633232c-.75-.3530273-1.0703125-1.2470703-.7167969-1.996582 1.21875-2.5834961 1.9013672-5.3310547 2.0292969-8.1665039.0371094-.8276367.7460938-1.4765625 1.5654297-1.4311523.828125.0371094 1.46875.7382813 1.4306641 1.565918-.1455078 3.234375-.9238281 6.3671875-2.3125 9.3120117C47.1486435 37.8976402 46.2527618 38.2169647 45.5065804 37.8633232z"/></svg>